<mxfile host="65bd71144e">
    <diagram id="rFmOCMcaIkLP6CqxaiLA" name="Page-1">
        <mxGraphModel dx="777" dy="737" grid="1" gridSize="10" guides="1" tooltips="1" connect="1" arrows="1" fold="1" page="1" pageScale="1" pageWidth="850" pageHeight="1100" math="0" shadow="0">
            <root>
                <mxCell id="0"/>
                <mxCell id="1" parent="0"/>
                <mxCell id="2" value="OpenShift" style="swimlane;fillColor=#f8cecc;strokeColor=#b85450;verticalAlign=top;" parent="1" vertex="1">
                    <mxGeometry x="20" y="30" width="800" height="500" as="geometry"/>
                </mxCell>
                <mxCell id="3" value="Order-solution" style="swimlane;" parent="2" vertex="1">
                    <mxGeometry x="10" y="30" width="770" height="180" as="geometry"/>
                </mxCell>
                <mxCell id="18" value="Producer" style="rounded=0;whiteSpace=wrap;html=1;fillColor=#d5e8d4;strokeColor=#82b366;" parent="3" vertex="1">
                    <mxGeometry x="80" y="40" width="120" height="60" as="geometry"/>
                </mxCell>
                <mxCell id="26" value="Streaming App" style="rounded=0;whiteSpace=wrap;html=1;fillColor=#d5e8d4;strokeColor=#82b366;" parent="3" vertex="1">
                    <mxGeometry x="550" y="60" width="120" height="60" as="geometry"/>
                </mxCell>
                <mxCell id="38" value="Streaming App" style="rounded=0;whiteSpace=wrap;html=1;fillColor=#d5e8d4;strokeColor=#82b366;" parent="3" vertex="1">
                    <mxGeometry x="560" y="50" width="120" height="60" as="geometry"/>
                </mxCell>
                <mxCell id="39" value="Streaming App" style="rounded=0;whiteSpace=wrap;html=1;fillColor=#d5e8d4;strokeColor=#82b366;" parent="3" vertex="1">
                    <mxGeometry x="570" y="60" width="120" height="60" as="geometry"/>
                </mxCell>
                <mxCell id="40" value="Streaming App" style="rounded=0;whiteSpace=wrap;html=1;fillColor=#d5e8d4;strokeColor=#82b366;" parent="3" vertex="1">
                    <mxGeometry x="580" y="70" width="120" height="60" as="geometry"/>
                </mxCell>
                <mxCell id="41" value="Producer" style="rounded=0;whiteSpace=wrap;html=1;fillColor=#d5e8d4;strokeColor=#82b366;" parent="3" vertex="1">
                    <mxGeometry x="70" y="50" width="120" height="60" as="geometry"/>
                </mxCell>
                <mxCell id="42" value="Producer" style="rounded=0;whiteSpace=wrap;html=1;fillColor=#d5e8d4;strokeColor=#82b366;verticalAlign=top;" parent="3" vertex="1">
                    <mxGeometry x="30" y="60" width="150" height="110" as="geometry"/>
                </mxCell>
                <mxCell id="45" value="max-inflight-msg&lt;br&gt;barch-size&lt;br&gt;ack&lt;br&gt;linger.ms" style="rounded=0;whiteSpace=wrap;html=1;" parent="3" vertex="1">
                    <mxGeometry x="50" y="100" width="120" height="60" as="geometry"/>
                </mxCell>
                <mxCell id="49" value="HTTP POST" style="text;html=1;strokeColor=none;fillColor=none;align=center;verticalAlign=middle;whiteSpace=wrap;rounded=0;" vertex="1" parent="3">
                    <mxGeometry x="75" y="20" width="110" height="30" as="geometry"/>
                </mxCell>
                <mxCell id="10" value="event-streams cluster" style="swimlane;verticalAlign=middle;textDirection=ltr;horizontal=1;" parent="2" vertex="1">
                    <mxGeometry x="11" y="230" width="769" height="180" as="geometry">
                        <mxRectangle x="11" y="320" width="160" height="23" as="alternateBounds"/>
                    </mxGeometry>
                </mxCell>
                <mxCell id="12" value="Event Streams&lt;br&gt;Broker 0" style="rounded=0;whiteSpace=wrap;html=1;fillColor=#dae8fc;strokeColor=#6c8ebf;" parent="10" vertex="1">
                    <mxGeometry x="29" y="130" width="120" height="40" as="geometry"/>
                </mxCell>
                <mxCell id="13" value="Event Streams&lt;br&gt;Broker 1" style="rounded=0;whiteSpace=wrap;html=1;fillColor=#dae8fc;strokeColor=#6c8ebf;" parent="10" vertex="1">
                    <mxGeometry x="169" y="130" width="120" height="40" as="geometry"/>
                </mxCell>
                <mxCell id="14" value="Event Streams&lt;br&gt;Broker 2" style="rounded=0;whiteSpace=wrap;html=1;fillColor=#dae8fc;strokeColor=#6c8ebf;" parent="10" vertex="1">
                    <mxGeometry x="309" y="130" width="120" height="40" as="geometry"/>
                </mxCell>
                <mxCell id="19" value="orders" style="shape=cylinder3;whiteSpace=wrap;html=1;boundedLbl=1;backgroundOutline=1;size=4;rotation=90;align=center;horizontal=0;" parent="10" vertex="1">
                    <mxGeometry x="319" y="20" width="31" height="80" as="geometry"/>
                </mxCell>
                <mxCell id="37" value="Event Streams&lt;br&gt;Broker 3" style="rounded=0;whiteSpace=wrap;html=1;fillColor=#f5f5f5;strokeColor=#666666;fontColor=#333333;" parent="10" vertex="1">
                    <mxGeometry x="449" y="130" width="120" height="40" as="geometry"/>
                </mxCell>
                <mxCell id="33" value="" style="shape=cylinder3;whiteSpace=wrap;html=1;boundedLbl=1;backgroundOutline=1;size=15;" parent="2" vertex="1">
                    <mxGeometry x="70" y="420" width="60" height="60" as="geometry"/>
                </mxCell>
                <mxCell id="34" value="" style="shape=cylinder3;whiteSpace=wrap;html=1;boundedLbl=1;backgroundOutline=1;size=15;" parent="2" vertex="1">
                    <mxGeometry x="220" y="420" width="60" height="60" as="geometry"/>
                </mxCell>
                <mxCell id="35" value="" style="shape=cylinder3;whiteSpace=wrap;html=1;boundedLbl=1;backgroundOutline=1;size=15;" parent="2" vertex="1">
                    <mxGeometry x="350" y="420" width="60" height="60" as="geometry"/>
                </mxCell>
                <mxCell id="36" value="" style="shape=cylinder3;whiteSpace=wrap;html=1;boundedLbl=1;backgroundOutline=1;size=15;fillColor=#f5f5f5;fontColor=#333333;strokeColor=#666666;" parent="2" vertex="1">
                    <mxGeometry x="500" y="420" width="60" height="60" as="geometry"/>
                </mxCell>
                <mxCell id="43" style="edgeStyle=orthogonalEdgeStyle;html=1;entryX=0;entryY=0;entryDx=0;entryDy=22;entryPerimeter=0;exitX=1;exitY=0.5;exitDx=0;exitDy=0;" parent="2" source="42" target="19" edge="1">
                    <mxGeometry relative="1" as="geometry"/>
                </mxCell>
                <mxCell id="46" value="orders" style="shape=cylinder3;whiteSpace=wrap;html=1;boundedLbl=1;backgroundOutline=1;size=4;rotation=90;align=center;horizontal=0;" vertex="1" parent="1">
                    <mxGeometry x="360" y="290" width="31" height="80" as="geometry"/>
                </mxCell>
                <mxCell id="47" value="orders" style="shape=cylinder3;whiteSpace=wrap;html=1;boundedLbl=1;backgroundOutline=1;size=4;rotation=90;align=center;horizontal=0;" vertex="1" parent="1">
                    <mxGeometry x="370" y="300" width="31" height="80" as="geometry"/>
                </mxCell>
                <mxCell id="48" value="orders" style="shape=cylinder3;whiteSpace=wrap;html=1;boundedLbl=1;backgroundOutline=1;size=4;rotation=90;align=center;horizontal=0;" vertex="1" parent="1">
                    <mxGeometry x="380" y="310" width="31" height="80" as="geometry"/>
                </mxCell>
                <mxCell id="32" style="edgeStyle=orthogonalEdgeStyle;html=1;entryX=0.5;entryY=1;entryDx=0;entryDy=0;exitX=0.5;exitY=0;exitDx=0;exitDy=0;exitPerimeter=0;" parent="1" source="48" target="40" edge="1">
                    <mxGeometry relative="1" as="geometry"/>
                </mxCell>
            </root>
        </mxGraphModel>
    </diagram>
</mxfile>